<svg width="30" height="30" viewBox="0 0 30 30" fill="none" xmlns="http://www.w3.org/2000/svg">
<path fill-rule="evenodd" clip-rule="evenodd" d="M15 0C23.2846 0 30 6.71543 30 15C30 23.2846 23.2846 30 15 30C6.71543 30 0 23.2846 0 15C0 6.71543 6.71543 0 15 0Z" fill="black"/>
<path fill-rule="evenodd" clip-rule="evenodd" d="M15.106 1.76471C22.4159 1.76471 28.3413 7.69009 28.3413 15C28.3413 22.3099 22.4159 28.2353 15.106 28.2353C7.79605 28.2353 1.87067 22.3099 1.87067 15C1.87067 7.69009 7.79605 1.76471 15.106 1.76471Z" fill="#D5DA25"/>
<path d="M22.0995 9.16974H23.0937C18.861 13.8703 15.5796 17.7463 12.6409 23.4142C11.1111 20.1437 9.74777 17.8859 6.69745 15.7926L7.83641 15.5351C10.1159 17.3999 11.3164 19.4726 12.6409 22.3053C15.3454 17.0887 18.3404 13.39 22.0995 9.16974Z" fill="#8B8E19"/>
<path d="M10.0414 13.9277C11.0584 14.5135 11.7196 15.0005 12.5081 15.8691C14.5518 12.5794 16.7702 10.7564 19.6551 8.16933L19.9369 8.06024H23.0937C18.861 12.7614 15.5796 16.6373 12.6409 22.3052C11.1111 19.0347 9.74777 16.7769 6.69745 14.6831L10.0414 13.9277Z" fill="white"/>
</svg>
