<svg width="60" height="30" viewBox="0 0 60 30" fill="none" xmlns="http://www.w3.org/2000/svg">
<path d="M10.6885 14.7418L22.4436 1.0314L22.4459 1.03392C22.7319 0.698385 23.1432 0.487727 23.599 0.487727C34.2678 0.476374 45.2682 0.178678 55.8948 0.451146C57.0584 0.477636 58.0897 0.991036 58.8268 1.81096C59.5639 2.62837 60.0069 3.74473 59.9998 4.98345C59.9623 11.7106 59.8569 18.4479 59.7842 25.1751C59.783 25.2483 59.7819 25.3214 59.7819 25.3946C59.8147 26.6459 59.3647 27.8657 58.5092 28.7424C57.7932 29.4778 56.8252 29.9382 55.7682 29.9912C55.617 30.0076 55.4834 29.9963 55.3334 29.995L23.6565 29.6998C23.2463 29.7162 22.8303 29.5598 22.5104 29.2293L10.7811 17.1322C10.1424 16.5003 10.1014 15.4293 10.6885 14.7418Z" fill="black"/>
<path d="M23.3583 1.03914L18.9165 6.53466C19.6779 7.99761 20.3707 9.68999 20.9701 11.6321C21.0635 11.6199 21.1593 11.6132 21.2562 11.6105C22.072 11.5821 22.7897 11.8912 23.4068 12.5376C23.9885 13.18 24.2864 13.9749 24.303 14.9156C24.3125 15.8563 24.037 16.662 23.4742 17.3273C22.9268 18.0089 22.2352 18.3611 21.404 18.3894C20.5752 18.4137 19.8671 18.1047 19.2806 17.4569C18.6812 16.7969 18.3726 15.9993 18.3596 15.0533C18.3478 14.2017 18.5736 13.4594 19.0383 12.8318C18.537 11.2015 17.9636 9.75613 17.3381 8.48616L11.5 15.7092L23.3583 28.6814L55.584 28.9999C57.0547 29.0134 58.2879 27.7232 58.2784 26.0214L58.4995 4.07571C58.5279 2.37523 57.3799 1.02429 55.8914 1L23.3583 1.03914Z" fill="#D5DA25"/>
<path d="M31.9136 22.2145H30.6163V23.8367H28.6194V17.1221H31.7636C33.1944 17.1221 33.9104 17.9484 33.9104 19.6034C33.9104 20.5129 33.7241 21.1865 33.3515 21.6242C33.2108 21.7882 33.0186 21.9282 32.7726 22.043C32.5253 22.1578 32.2393 22.2145 31.9136 22.2145ZM28.6862 14.7456V7.01181H32.4116C33.1007 7.01181 33.594 7.15562 33.8882 7.44448C34.1835 7.73335 34.3311 8.15467 34.3311 8.70717C34.3311 9.25968 34.2374 9.6873 34.0499 9.98752C33.8624 10.289 33.6104 10.4845 33.2964 10.5753V10.6498C34.2233 10.8226 34.6874 11.5038 34.6874 12.692C34.6874 13.3101 34.5339 13.8071 34.228 14.183C33.921 14.5577 33.4499 14.7456 32.8136 14.7456H28.6862ZM31.8819 11.5454H30.8811V13.0452H31.8714C32.1925 13.0452 32.3542 12.716 32.3542 12.2959C32.3542 11.8746 32.196 11.5454 31.8819 11.5454ZM31.7097 8.5886H30.8811V9.97617H31.6991C31.9897 9.97617 32.1351 9.66585 32.1351 9.28238C32.1351 8.89891 31.9921 8.5886 31.7097 8.5886ZM40.0909 11.7068H37.7917V12.885H40.6077V14.7456H35.4925V7.01181H40.5503L40.2632 8.87242H37.7917V10.1502H40.0909V11.7068ZM41.2979 14.6094L41.6202 12.687C42.3245 12.8762 42.9585 12.9708 43.5222 12.9708C44.0858 12.9708 44.5394 12.9468 44.8851 12.8964V12.0411L43.8503 11.9415C42.9151 11.8519 42.2729 11.7283 41.9249 11.3372C41.5757 10.9449 41.4011 10.3647 41.4011 9.59774C41.4011 8.54192 41.6144 7.8166 42.0397 7.42052C42.4651 7.02443 43.187 6.82638 44.2065 6.82638C45.2261 6.82638 46.146 6.92982 46.9651 7.13543L46.678 8.99604C45.9655 8.87242 45.3948 8.81061 44.9647 8.81061C44.5358 8.81061 44.1726 8.83205 43.8726 8.87242V9.71631L44.7011 9.80335C45.7054 9.90805 46.398 10.0506 46.7812 10.458C47.1644 10.8667 47.3565 11.4331 47.3565 12.1597C47.3565 12.6794 47.2909 13.1184 47.1608 13.4779C47.0308 13.8361 46.8749 14.1086 46.6956 14.294C46.5151 14.4795 46.2608 14.622 45.9304 14.7217C45.6011 14.82 45.3116 14.8806 45.0632 14.9008C44.8136 14.921 44.4819 14.931 44.0683 14.931C43.0722 14.931 42.1487 14.8238 41.2979 14.6094ZM53.3343 8.99225H51.6679V14.7456H49.3687V8.99225H47.7011V7.01181H53.3343V8.99225ZM30.6163 18.7229V20.6125H31.0745C31.3147 20.6125 31.4893 20.586 31.5995 20.5318C31.7085 20.4775 31.7636 20.3552 31.7636 20.1609V19.1745C31.7636 18.9815 31.7085 18.8579 31.5995 18.8036C31.4893 18.7506 31.3136 18.7229 31.0745 18.7229H30.6163ZM39.9491 23.8367H37.753L36.9351 21.8386H36.505V23.8367H34.5093V17.1221H37.6534C39.0843 17.1221 39.7991 17.9055 39.7991 19.4747C39.7991 20.5494 39.4897 21.2584 38.871 21.6027L39.9491 23.8367ZM36.505 18.7229V20.3009H36.9644C37.2046 20.3009 37.3792 20.2745 37.4882 20.2202C37.5983 20.1672 37.6534 20.0436 37.6534 19.8493V19.1745C37.6534 18.9815 37.5983 18.8579 37.4882 18.8036C37.3792 18.7506 37.2034 18.7229 36.9644 18.7229H36.505ZM40.6476 23.8367V17.1221H42.6444V23.8367H40.6476ZM47.7854 21.9143L47.9355 23.7194C47.5159 23.9048 46.9897 23.9982 46.3581 23.9982C45.7253 23.9982 45.2179 23.9263 44.8358 23.7837C44.4526 23.6399 44.1515 23.4141 43.9323 23.1064C43.712 22.7986 43.5597 22.4365 43.4729 22.0215C43.3862 21.6053 43.3429 21.0931 43.3429 20.4851C43.3429 19.8758 43.3862 19.3612 43.4729 18.9424C43.5597 18.5236 43.712 18.1603 43.9323 17.8525C44.3577 17.2571 45.1394 16.9607 46.2772 16.9607C46.5304 16.9607 46.828 16.9872 47.1714 17.0402C47.5136 17.0944 47.7679 17.1612 47.9355 17.2395L47.6355 18.8831C47.203 18.7834 46.8069 18.733 46.4472 18.733C46.0874 18.733 45.839 18.7696 45.6983 18.8402C45.5589 18.9121 45.4897 19.0559 45.4897 19.2704V22.0859C45.7487 22.1426 46.0112 22.1716 46.2772 22.1716C46.8433 22.1716 47.346 22.0859 47.7854 21.9143ZM52.6265 21.1839H50.6308V22.2347H53.0765V23.8367H48.6339V17.1221H53.0261L52.7765 18.7229H50.6308V19.8607H52.6265V21.1839ZM21.0491 27.3889C8.95886 23.9969 1.98503 17.2849 0.475657 12.3161C-0.629422 8.68068 0.281125 5.34169 2.27683 3.0522C4.25144 0.786675 7.29832 -0.430602 10.4952 0.139563C14.4866 0.851007 18.703 4.34137 21.2319 12.0764C21.3245 12.0651 21.4194 12.0588 21.5155 12.0563C22.3241 12.0298 23.0354 12.3186 23.6472 12.9229C24.2237 13.5233 24.519 14.2663 24.5354 15.1455C24.5448 16.0247 24.2718 16.7778 23.714 17.3997C23.1714 18.0367 22.4858 18.3659 21.662 18.3924C20.8405 18.4151 20.1386 18.1262 19.5573 17.5208C18.9632 16.9039 18.6573 16.1584 18.6444 15.2742C18.6327 14.4782 18.8565 13.7844 19.3171 13.1978C17.0952 6.38236 13.4483 3.01561 10.1495 2.42779C7.68738 1.98881 5.35066 2.9147 3.8448 4.64159C2.36121 6.34452 1.68972 8.84971 2.52527 11.5996C3.84597 15.9465 8.79129 20.8774 19.8198 24.5393L21.0491 27.3889Z" fill="black"/>
</svg>
