<svg width="61" height="61" viewBox="0 0 61 61" fill="none" xmlns="http://www.w3.org/2000/svg">
<rect x="15.424" y="15.5" width="30" height="30" rx="15" stroke="white" stroke-width="30"/>
<rect x="7.5" y="7.5" width="46" height="46" rx="23" stroke="black" stroke-width="11"/>
<path d="M45.167 17.7451C45.5723 18.1831 46.1631 18.8868 46.4902 19.315L52.5645 15.4567C52.2617 15.0581 51.7783 14.4577 51.417 14.0295L47.5693 16.5738L47.3057 16.8002L47.501 16.5148L49.2002 13.124L47.999 11.9232L44.6055 13.6211L44.3223 13.8179L44.5469 13.5571L47.0908 9.71358C46.6416 9.33465 46.2119 8.98524 45.665 8.56201L41.8076 14.6299C42.2959 15.0039 42.9404 15.5551 43.3506 15.9341L46.9834 14.0492L47.2129 13.877L47.042 14.1083L45.167 17.7451ZM31.3828 10.0531L33.043 6.3376L33.1455 6.00787L33.1162 6.35236L33.292 11.3228C33.873 11.377 34.4785 11.4606 35.0693 11.5591L34.7959 4.19193C33.9658 4.09843 33.1406 4.03445 32.3154 4L30.6797 8.06004L30.6211 8.36024L30.5625 8.06004L28.9268 4C28.1016 4.03445 27.2764 4.09843 26.4463 4.19193L26.1777 11.5541C26.7686 11.4557 27.3691 11.377 27.9551 11.3179L28.1309 6.34744L28.1016 6.00295L28.209 6.33268L29.8691 10.0531H31.3828ZM17.9551 15.9144C18.917 14.9055 19.459 13.7343 18.4971 12.622C17.9746 12.0167 17.0957 11.8839 16.373 12.1841L16.2998 12.2136L16.3242 12.1496C16.4316 11.8642 16.5 10.9439 15.7188 10.314C15.3379 10.0039 14.8594 9.89075 14.376 9.93996C13.4727 10.0335 12.7842 10.6486 10.8945 12.75C10.3232 13.3848 9.49316 14.3888 9 15.0335L14.1855 19.9498C15.8994 18.0502 16.6025 17.3415 17.9551 15.9144ZM11.1924 14.7136C12.2373 13.4341 13.3457 12.2776 13.8486 11.8199C14.0098 11.6772 14.1807 11.5295 14.3906 11.4754C14.7324 11.3819 15.084 11.623 15.1621 11.9724C15.2402 12.3219 15.0205 12.6565 14.7764 12.9321C14.2246 13.5571 12.1982 15.6732 12.1982 15.6732L11.1924 14.7136ZM13.2236 16.6378C13.2236 16.6378 15.1963 14.5512 15.8408 13.8868C16.0947 13.6211 16.2607 13.4587 16.4365 13.375C16.666 13.2618 16.9102 13.2421 17.1348 13.3898C17.3545 13.5374 17.4521 13.7884 17.3984 14.0394C17.335 14.3396 17.0908 14.6201 16.8906 14.8366L14.2783 17.6368L13.2236 16.6378Z" fill="white"/>
<path d="M30.5 13V30.5H13C13 20.8278 20.8279 13 30.5 13ZM48 30.5C48 40.1722 40.1721 48 30.5 48V30.5H48Z" fill="#0066B1"/>
</svg>
