<svg width="60" height="61" viewBox="0 0 60 61" fill="none" xmlns="http://www.w3.org/2000/svg">
<path d="M60 30.4996C60 47.0687 46.5683 60.5 30 60.5C13.4315 60.5 0 47.0687 0 30.4996C0 13.9317 13.4315 0.5 30 0.5C46.5683 0.5 60 13.9317 60 30.4996Z" fill="white"/>
<path d="M31.843 52.2947C31.8641 52.2937 34.9538 52.1422 37.6487 51.5348C39.9906 51.0077 42.0629 50.0001 42.0836 49.9901L42.0912 49.986L42.0995 49.9822C42.1111 49.9773 43.2657 49.4788 43.976 48.8001C44.696 48.1116 45.0232 47.211 45.0265 47.202C45.0411 47.163 46.3017 43.8032 47.255 40.2144C48.1325 36.9119 48.7343 33.2609 48.7406 33.2245C48.75 33.1765 49.4769 29.4874 49.6811 25.5634C49.8527 22.2654 49.5118 18.521 49.5078 18.4834C49.5057 18.4551 49.3302 16.2378 48.4404 14.7878C47.6407 13.4851 46.0967 12.8452 46.0811 12.8387L46.0676 12.8334L46.0546 12.8265C46.0367 12.8176 44.244 11.9194 40.8432 11.1795C38.1308 10.5894 34.3607 10.1682 31.2389 10.1074C27.67 10.0372 23.8386 10.2862 20.9911 10.7729C17.576 11.3566 15.3572 12.2239 15.3348 12.2326L15.3163 12.2395L15.2972 12.2446C15.275 12.2505 13.0622 12.8572 11.899 14.3342C10.7171 15.8346 10.5257 18.2995 10.5239 18.3243L10.5224 18.3394C10.519 18.3646 10.2712 20.4904 10.2712 23.0959C10.2712 23.5628 10.279 24.0453 10.2981 24.534C10.4313 28.0043 11.038 31.8504 11.0439 31.8888C11.051 31.9268 11.8729 36.4421 12.8104 40.2475C13.5047 43.0685 14.409 45.5643 14.4182 45.5889L14.4241 45.6068L14.4287 45.6251C14.4322 45.6378 14.7403 46.9041 15.2415 47.7878C15.678 48.5566 16.3205 49.0087 16.3272 49.0126L16.3377 49.0199L16.3481 49.0285C16.3528 49.0319 16.7901 49.385 17.4613 49.7529C18.2342 50.176 19.2698 50.63 19.3137 50.6483C19.3868 50.6769 21.6698 51.5509 24.6796 51.9481C27.8228 52.363 31.8029 52.2953 31.843 52.2947Z" fill="#8B062B" stroke="#6D0115" stroke-width="5.42373"/>
<path d="M21.345 33.3449V30.4004H18.8197L18.8291 22.9889H22.126L22.1083 20.0129H15.2543L15.8738 42.7907H18.8856L18.8197 33.3453L21.345 33.3449ZM23.299 20.0127L23.6799 42.7905H26.7897L26.8528 20.0127H23.299ZM43.2733 42.7905L43.9119 22.8823H46.3485L46.3298 20.0127H37.8783V22.8857H40.3349L40.2641 42.7905H43.2733ZM31.5432 30.5546L31.5773 22.8176H33.3137C34.1008 24.5407 34.6066 26.8195 35.0032 30.5546H31.5432ZM28.7683 42.7899H31.6475L31.6796 33.3711H35.1293C35.4006 35.0334 35.4669 40.1655 35.4832 42.7901H38.276C38.5396 31.1613 37.7207 24.5881 35.4592 20.0125H28.5049L28.7683 42.7899Z" fill="#1A1A1A"/>
<path d="M21.7136 29.9925H19.1819L19.1912 22.5808H22.4966L22.4787 19.6045H15.6075L16.2287 42.3824H19.2479L19.1819 32.9369H21.7136V29.9925Z" fill="url(#paint0_radial_3_56)"/>
<path d="M27.2353 19.6045H23.6724L24.0544 42.3824H27.1721L27.2353 19.6045Z" fill="url(#paint1_radial_3_56)"/>
<path d="M40.6801 42.3824H43.6967L44.3372 22.4741H46.7797L46.761 19.6045H38.2881V22.4775H40.751L40.6801 42.3824Z" fill="url(#paint2_radial_3_56)"/>
<path d="M31.9372 30.1466L31.9712 22.4095H33.712C34.5012 24.1328 35.0082 26.4115 35.4058 30.1466H31.9372ZM29.1555 42.3821H32.042L32.0743 32.9631H35.5327C35.8045 34.6258 35.8711 39.7574 35.8875 42.3821H38.6873C38.9512 30.7534 38.1305 24.1802 35.8629 19.6045H28.8914L29.1555 42.3821Z" fill="url(#paint3_radial_3_56)"/>
<defs>
<radialGradient id="paint0_radial_3_56" cx="0" cy="0" r="1" gradientUnits="userSpaceOnUse" gradientTransform="translate(31.1954 30.9945) scale(21.7161 18.8424)">
<stop stop-color="#D3D1D2"/>
<stop offset="0.5" stop-color="#C9C7C8"/>
<stop offset="1" stop-color="#8D8B8C"/>
</radialGradient>
<radialGradient id="paint1_radial_3_56" cx="0" cy="0" r="1" gradientUnits="userSpaceOnUse" gradientTransform="translate(31.1955 30.9945) scale(21.7161 18.8424)">
<stop stop-color="#D3D1D2"/>
<stop offset="0.5" stop-color="#C9C7C8"/>
<stop offset="1" stop-color="#8D8B8C"/>
</radialGradient>
<radialGradient id="paint2_radial_3_56" cx="0" cy="0" r="1" gradientUnits="userSpaceOnUse" gradientTransform="translate(31.1954 30.9945) scale(21.7161 18.8424)">
<stop stop-color="#D3D1D2"/>
<stop offset="0.5" stop-color="#C9C7C8"/>
<stop offset="1" stop-color="#8D8B8C"/>
</radialGradient>
<radialGradient id="paint3_radial_3_56" cx="0" cy="0" r="1" gradientUnits="userSpaceOnUse" gradientTransform="translate(31.1954 30.9942) scale(21.7153 18.8417)">
<stop stop-color="#D3D1D2"/>
<stop offset="0.5" stop-color="#C9C7C8"/>
<stop offset="1" stop-color="#8D8B8C"/>
</radialGradient>
</defs>
</svg>
