<svg width="124" height="61" viewBox="0 0 124 61" fill="none" xmlns="http://www.w3.org/2000/svg">
<path d="M62.288 0.5C28.178 0.5 0.847992 13.8203 0.847992 30.5C0.847992 47.0755 28.418 60.5 62.288 60.5C96.158 60.5 123.728 47.0365 123.728 30.5C123.728 13.9635 96.158 0.5 62.288 0.5Z" fill="#003478"/>
<path d="M98.388 21.8933C98.468 21.711 98.388 21.5808 98.208 21.5808C97.278 21.5808 96.058 21.5808 95.118 21.5808C94.878 21.5808 94.758 21.6069 94.668 21.8933C94.308 22.7917 89.978 31.2553 89.168 32.8959C89.028 33.1563 88.878 33.1042 88.848 32.8178C88.768 31.8412 88.118 30.7084 87.098 30.1746C86.328 29.7579 85.558 29.6798 84.768 29.81C83.348 30.0704 82.068 31.047 80.948 32.1407C79.248 33.8074 77.818 35.9688 75.918 37.5834C74.898 38.4558 73.498 39.198 72.548 38.0652C71.698 37.0365 71.798 34.7579 73.098 32.9871C73.238 32.8048 73.388 32.961 73.378 33.1173C73.258 33.9115 73.418 34.7058 73.868 35.2527C74.438 35.9167 75.248 35.9949 75.938 35.5652C76.768 35.0313 77.238 34.0287 77.378 32.8438C77.598 31.047 76.528 29.4584 75.208 29.3282C74.128 29.224 73.098 29.7058 72.078 30.8126C71.568 31.3464 71.288 31.7631 70.838 32.5834C70.738 32.7917 70.558 32.8178 70.578 32.5053C70.638 30.2006 69.888 28.9115 68.428 28.8595C67.298 28.8334 66.078 29.6277 65.138 30.6042C64.098 31.685 63.208 33.1173 62.218 34.4714C62.098 34.6277 61.998 34.6277 61.958 34.3152C61.918 32.8048 61.638 31.3074 61.088 30.2657C60.888 29.9011 60.498 29.7319 60.158 29.9532C59.998 30.0574 59.448 30.3829 59.058 30.7996C58.858 31.0079 58.778 31.3074 58.858 31.698C59.388 33.9766 59.268 36.5678 58.558 38.7553C57.908 40.7605 56.648 42.5834 55.148 43.1694C54.168 43.573 53.138 43.3777 52.508 42.2449C51.638 40.6824 51.998 37.961 53.278 35.7084C54.418 33.7292 56.078 32.4532 57.708 31.6589C57.908 31.5548 57.948 31.3985 57.888 31.1902C57.808 30.8256 57.648 30.3699 57.588 30.1355C57.428 29.6277 57.018 29.5235 56.508 29.6016C55.308 29.7839 54.238 30.3178 53.178 31.06C50.398 33.0131 48.998 36.7501 48.368 38.7813C48.068 39.7579 47.818 40.3438 47.498 40.8907C47.068 41.6069 46.518 42.2709 45.488 43.4037C45.388 43.5079 45.328 43.7423 45.408 43.9376C45.508 44.224 46.038 45.1746 46.178 45.2657C46.338 45.3699 46.528 45.2136 46.608 45.1615C47.318 44.5496 48.168 43.547 48.578 42.8829C48.718 42.6485 48.878 42.7527 48.948 43.0912C49.338 44.8881 50.348 46.3464 51.748 46.9714C54.308 48.1042 56.968 46.4636 58.958 43.6381C60.238 41.8412 60.688 40.6824 61.188 39.8881C62.018 38.56 63.648 35.5782 65.578 33.6511C66.288 32.935 67.138 32.4011 67.548 32.7527C67.878 33.0391 67.998 33.7032 67.448 35.0053C65.478 39.7058 62.558 45.2397 62.028 46.5808C61.928 46.8152 62.008 46.9975 62.208 46.9975C63.258 46.9975 64.278 46.9975 65.198 46.9975C65.358 46.9975 65.438 46.8933 65.518 46.7371C67.038 43.6381 68.478 40.6824 69.988 37.6485C70.068 37.4662 70.148 37.5964 70.148 37.6746C70.188 38.3907 70.308 39.3412 70.638 39.9792C71.208 41.1641 72.038 41.6459 72.938 41.672C73.668 41.672 74.018 41.5417 74.808 41.1641C75.438 40.8516 75.948 40.448 76.348 40.0834C76.588 39.8751 76.628 40.2136 76.608 40.2657C76.248 42.7266 76.688 45.6303 78.558 46.8542C80.808 48.2865 83.268 46.2683 84.688 44.4454C84.828 44.2631 84.978 44.2891 84.978 44.6798C85.018 45.3699 85.258 46.2162 85.688 46.7891C86.868 48.3516 89.278 47.7397 91.678 45.3048C93.218 43.7423 94.848 41.5548 96.308 39.224C96.368 39.1459 96.408 38.9897 96.308 38.8334C96.088 38.5209 95.758 38.1954 95.538 37.9089C95.438 37.8048 95.298 37.8308 95.208 37.9089C93.708 39.7579 92.348 41.8803 90.418 43.6251C89.768 44.211 88.708 44.7058 88.248 43.8855C88.068 43.573 88.088 43.1173 88.268 42.5313C88.908 40.7865 97.918 22.948 98.388 21.8933ZM86.488 36.8542C86.508 36.9845 86.648 37.1147 86.778 37.1928C86.818 37.2188 86.858 37.2709 86.798 37.4011C86.418 38.4819 86.068 39.0938 85.578 40.0183C85.148 40.8647 84.628 41.5287 84.038 42.1928C83.128 43.1694 81.868 44.224 80.828 43.5209C80.378 43.2084 80.158 42.3621 80.178 41.672C80.198 39.7449 80.848 37.7657 82.068 35.8516C83.548 33.4949 85.178 32.2579 86.248 32.922C87.348 33.6121 86.998 35.2787 86.508 36.5938C86.468 36.672 86.468 36.7761 86.488 36.8542Z" fill="white"/>
<path d="M33.108 47.0104C29.758 47.0364 26.798 44.3411 26.448 39.6797C26.248 37.0885 26.818 34.7838 27.948 32.8828C28.958 31.1901 30.628 29.7838 32.068 29.4453C32.538 29.3411 33.148 29.3932 33.408 29.8099C33.818 30.4219 33.708 31.0989 33.288 31.3724C32.208 32.0885 30.888 33.3516 30.238 35.0443C29.708 36.4245 29.608 38.0911 30.418 39.6927C31.758 42.3359 35.518 42.414 39.008 38.1823C39.878 37.1536 40.648 36.151 41.428 34.9792C42.968 32.7005 43.478 31.8542 45.528 28.1562C45.548 28.1042 45.568 28.0521 45.548 28.026C45.528 27.9739 45.508 27.9739 45.448 27.9739C44.088 28.026 42.888 28.5338 41.748 29.6667C41.408 29.9792 40.938 29.9531 40.728 29.5104C40.488 29.0417 40.668 28.4297 41.048 28.0781C42.898 26.3854 44.948 26.0729 47.018 25.6432C47.018 25.6432 47.158 25.6432 47.278 25.4349C48.128 24.0286 48.778 22.7135 49.678 21.2812C50.588 19.8229 51.768 18.4818 52.678 17.4531C53.938 16.0469 54.748 15.5521 55.578 14.9922C55.798 14.8359 55.558 14.6536 55.478 14.6536C50.888 13.5208 46.118 12.0885 41.568 14.263C38.418 15.7995 37.038 19.0677 37.688 21.2422C38.158 22.7786 39.718 23.0391 41.178 22.1146C42.378 21.3463 43.508 20.0833 44.308 18.4948C44.758 17.5963 45.688 18.2344 45.198 19.7969C43.858 23.8724 41.318 27.1146 38.218 27.2318C35.578 27.3359 33.888 24.8229 33.888 21.6849C33.908 15.526 39.168 11.4765 44.688 10.8776C51.348 10.1614 57.658 12.4661 64.278 13.5208C69.338 14.3151 74.208 14.3411 79.288 12.8047C79.898 12.6224 80.318 13.1432 80.278 13.9375C80.218 15.0963 79.548 16.1901 77.878 17.375C75.968 18.7292 73.978 19.1458 71.888 19.1719C66.848 19.2239 62.158 16.6588 57.288 15.2917C57.288 15.5781 57.348 15.9036 57.168 16.0599C54.488 18.651 52.048 21.2682 50.408 24.9661C50.348 25.0443 50.388 25.1224 50.488 25.1224C51.908 25.0182 53.168 24.9661 54.488 24.8359C54.728 24.8099 54.728 24.7318 54.708 24.5234C54.588 23.2604 54.868 21.8021 55.728 20.7995C56.618 19.7708 57.698 19.6406 58.428 20.3958C59.258 21.2422 59.178 22.7526 58.728 23.8854C58.278 25.0443 57.508 25.6562 56.778 25.9427C56.778 25.9427 56.618 25.9948 56.638 26.1771C56.678 26.4635 57.658 27.1797 57.738 27.388C57.818 27.5703 57.778 27.8437 57.618 28.0521C57.518 28.2083 57.338 28.3646 57.148 28.3646C56.968 28.3646 56.868 28.2864 56.658 28.1302C56.208 27.8177 55.658 27.2838 55.278 26.6979C55.138 26.4896 55.078 26.4896 54.768 26.5156C53.328 26.6198 51.098 26.9062 49.608 27.1536C49.238 27.2057 49.198 27.3099 49.118 27.4661C46.718 32.6224 44.128 38.2213 41.318 41.9323C38.288 45.9427 35.788 46.9974 33.108 47.0104ZM56.038 24.0547C56.078 24.3151 56.158 24.3672 56.258 24.3411C56.708 24.2109 57.228 23.7292 57.518 23.1562C57.798 22.6484 57.908 21.8932 57.658 21.5937C57.418 21.3333 57.028 21.3854 56.728 21.7239C56.138 22.414 55.968 23.3385 56.038 24.0547Z" fill="white"/>
<path d="M62.288 57.8959C29.778 57.8959 3.40799 45.6303 3.40799 30.5131C3.40799 15.3959 29.778 3.14331 62.288 3.14331C94.798 3.14331 121.168 15.4089 121.168 30.5131C121.168 45.6303 94.798 57.8959 62.288 57.8959ZM62.288 5.39591C30.918 5.39591 5.47799 16.685 5.47799 30.4871C5.47799 44.2891 30.918 55.5782 62.288 55.5782C93.658 55.5782 119.098 44.2891 119.098 30.4871C119.098 16.685 93.658 5.39591 62.288 5.39591Z" fill="white"/>
</svg>
