<svg viewBox="0 0 13 15" fill="none" xmlns="http://www.w3.org/2000/svg">
    <path
        d="M6.60403 8.43096C6.87032 8.43096 7.134 8.37851 7.38001 8.27661C7.62603 8.17471 7.84957 8.02535 8.03786 7.83705C8.22615 7.64876 8.37551 7.42522 8.47742 7.17921C8.57932 6.93319 8.63177 6.66951 8.63177 6.40323C8.63177 6.13694 8.57932 5.87326 8.47742 5.62724C8.37551 5.38123 8.22615 5.15769 8.03786 4.9694C7.84957 4.78111 7.62603 4.63174 7.38001 4.52984C7.134 4.42794 6.87032 4.37549 6.60403 4.37549C6.06624 4.37549 5.55048 4.58912 5.1702 4.9694C4.78993 5.34967 4.57629 5.86544 4.57629 6.40323C4.57629 6.94102 4.78993 7.45678 5.1702 7.83705C5.55048 8.21733 6.06624 8.43096 6.60403 8.43096Z"
        stroke="#9ca3af" />
    <path
        d="M1.15774 5.22037C2.43807 -0.407905 10.7765 -0.401406 12.0503 5.22687C12.7977 8.52844 10.744 11.3231 8.94373 13.0519C8.31466 13.6586 7.47476 13.9976 6.60079 13.9976C5.72681 13.9976 4.88691 13.6586 4.25784 13.0519C2.46407 11.3231 0.410337 8.52194 1.15774 5.22037Z"
        stroke="#9ca3af" />
</svg>