<svg width="71" height="61" viewBox="0 0 71 61" fill="none" xmlns="http://www.w3.org/2000/svg">
<rect x="0.151978" y="0.5" width="70" height="60" fill="black"/>
<path fill-rule="evenodd" clip-rule="evenodd" d="M35.6523 5.5C42.8839 5.5 50.3899 6.12233 58.0087 7.4478C58.1224 10.5265 58.2515 15.2853 58.0347 19.3235C57.5491 28.327 55.5834 35.3152 51.8462 41.3161C48.1207 47.2996 42.3519 52.4445 35.6523 55.5C28.9527 52.4445 23.1834 47.2996 19.4579 41.3161C15.7212 35.3152 13.7549 28.327 13.2699 19.3235C13.0521 15.2853 13.1816 10.5265 13.2954 7.4478C20.9141 6.12233 28.4207 5.5 35.6523 5.5ZM35.6523 6.36735C28.5232 6.36735 21.2854 6.97835 14.1293 8.18441C13.9722 12.7518 13.9722 16.3859 14.1283 19.2767C14.6047 28.1268 16.5296 34.9837 20.1858 40.8549C23.8414 46.7256 29.323 51.575 35.6523 54.5462C41.9811 51.575 47.4632 46.7256 51.1188 40.8549C54.7749 34.9837 56.6994 28.1268 57.1763 19.2767C57.3324 16.3859 57.3324 12.7518 57.1753 8.18441C50.0191 6.97835 42.7809 6.36735 35.6523 6.36735ZM35.59 32.6586C35.59 32.6586 35.7307 33.5013 35.7736 33.7458C35.7976 33.8843 35.8027 33.9213 35.768 34.0572C35.6555 34.4942 35.1357 36.7974 34.7197 39.1552L34.6549 39.5277C34.485 40.5207 34.3381 41.5065 34.2526 42.3498C34.2041 42.829 34.2199 42.9438 34.3454 43.369C34.7009 44.5704 36.0159 47.7093 36.2683 48.2817C36.2964 48.3451 36.3132 48.4115 36.3214 48.4799L36.4163 49.2201C35.9949 48.5782 33.7058 44.3331 32.8066 41.9823C32.7005 41.7053 32.6801 41.5689 32.7974 41.0598C33.4227 38.359 35.1146 33.7695 35.59 32.6586ZM32.2516 26.1342C32.2516 26.1342 32.4275 26.7091 32.5971 27.3334L32.6565 27.5549C32.7636 27.9617 32.8592 28.3633 32.8938 28.6174C32.9269 28.8619 32.9213 28.9278 32.8351 29.162C32.6261 29.723 32.2414 30.6254 31.8311 31.5479L31.6541 31.9436C31.1507 33.0628 30.641 34.1441 30.3935 34.6121C30.2716 34.8427 30.1568 34.993 29.9273 35.2283C29.4034 35.7662 28.4007 36.7828 27.7799 37.3516C27.5545 37.5585 27.4938 37.7351 27.4479 38.0028C27.3739 38.4326 27.3005 39.1661 27.2801 39.5449C27.2622 39.878 27.3158 40.0339 27.4999 40.3639C28.594 42.3328 32.2465 46.8626 33.287 47.8138C33.3625 47.8828 33.4176 47.9291 33.5768 48.0357C33.7298 48.1386 34.2286 48.465 34.2286 48.465C34.2485 48.4789 34.2653 48.4974 34.2781 48.5185L34.4586 48.8392C34.4586 48.8392 34.4418 48.8308 34.4113 48.8155L34.3334 48.7764C34.2706 48.745 34.1877 48.7033 34.0925 48.6553L33.8606 48.5382C33.5051 48.3582 33.0814 48.1418 32.8586 48.0208C32.7668 47.9708 32.6806 47.9122 32.6005 47.8447C31.382 46.8235 27.6478 42.4147 26.5497 40.5739C26.2758 40.1142 26.2477 39.9655 26.2844 39.5305C26.3533 38.7208 26.4599 37.7027 26.5532 37.2564C26.6099 36.9872 26.6685 36.8291 26.873 36.5913C27.5604 35.7931 28.3987 34.7392 29.2157 33.6579L29.5028 33.2755C30.7409 31.6167 31.8814 29.9563 32.3072 29.1105C32.4046 28.918 32.4128 28.8511 32.4148 28.6694C32.4204 28.1423 32.2537 27.1158 32.2098 26.8564C32.2032 26.8157 32.2011 26.7746 32.2047 26.7334L32.2516 26.1342ZM42.4428 25.1449L42.7585 25.2834C42.8519 25.3241 42.9371 25.3838 43.0074 25.4579C44.9431 27.4963 46.4911 29.6098 46.8013 30.1668C46.8609 30.2739 46.9017 30.3809 46.9165 30.5034C47.2644 33.4761 46.9655 36.6253 46.255 39.3648C46.1907 39.6119 46.1188 39.7385 45.8832 39.9171C45.1246 40.4928 43.9923 41.4108 42.8662 42.3467L42.5112 42.6425C41.1548 43.7757 39.866 44.8852 39.3192 45.3956C39.182 45.5243 39.0621 45.6695 38.9642 45.8306C38.7078 46.2511 38.3162 46.9749 38.124 47.3341L38.0703 47.4346C38.0317 47.507 38.0094 47.5493 38.0094 47.5493C37.7543 46.9877 37.1984 45.6175 37.0076 45.0636C36.9454 44.8829 36.9342 44.7882 37 44.5463C37.3111 43.3979 38.7816 40.0592 39.0677 39.4554L39.0683 39.7025C39.0683 39.7385 39.0626 39.7741 39.0514 39.808C38.9224 40.2028 38.1318 42.8342 37.9711 43.9754C37.9354 44.2292 37.9385 44.2976 37.9711 44.5468C38.0415 45.0796 38.3572 46.0565 38.3572 46.0565C38.3572 46.0565 38.5444 45.6622 38.7189 45.3956C38.8046 45.2649 38.8561 45.2021 38.9958 45.062C39.7028 44.3565 40.9088 43.266 42.165 42.1694L42.6098 41.7827C43.5747 40.947 44.5381 40.1338 45.2991 39.5126C45.497 39.3509 45.571 39.2428 45.6149 38.936C45.8332 37.4247 45.8964 34.712 45.7648 32.738C45.7398 32.3653 45.62 32.005 45.4119 31.6956C44.9344 30.9837 44.3637 30.3099 43.4981 29.4446C43.3747 29.3206 43.2905 29.162 43.2589 28.9891C43.0064 27.6301 42.4428 25.1449 42.4428 25.1449ZM26.0739 28.289C26.1943 28.2499 26.3223 28.2453 26.4447 28.2751C26.9966 28.4089 28.1646 28.6977 29.0475 28.9257C29.1715 28.9577 29.326 29.0745 29.3918 29.1852L29.5841 29.5079C29.6514 29.6212 29.656 29.7602 29.5964 29.8775C29.4359 30.1915 29.207 30.6166 28.965 31.0549L28.7819 31.3846C28.4449 31.988 28.1093 32.5701 27.9188 32.8764C27.7933 33.0787 27.7234 33.1683 27.5 33.2481C26.6314 33.5564 25.5526 33.925 24.9115 34.1345C24.7804 34.1772 24.736 34.2575 24.7615 34.4042C24.8074 34.6714 24.9553 35.5783 25.0119 35.8429C25.0329 35.9407 25.1104 36.0185 25.2542 35.9907C25.6332 35.9181 26.6421 35.6689 26.6421 35.6689C26.6421 35.6689 26.3447 35.9464 26.1667 36.1101C26.1341 36.141 26.0963 36.1636 26.054 36.1775C25.7791 36.2702 25.1078 36.4601 24.8987 36.5064C24.7355 36.542 24.6314 36.4771 24.5896 36.2908C24.5896 36.2908 24.3035 35.0615 24.1999 34.6436C24.1836 34.5797 24.1673 34.5247 24.1474 34.4619C24.0699 34.2199 23.8837 33.7443 23.7786 33.4952C23.7664 33.4663 23.7603 33.4354 23.7607 33.4035C23.7638 33.1189 23.8158 32.4837 23.8158 32.4837C23.8158 32.4837 24.4335 33.0679 24.7324 33.279C24.7998 33.3268 24.84 33.3366 24.9227 33.3155C25.3333 33.209 26.2774 32.8939 26.7956 32.6983C26.9139 32.6535 27.0175 32.5784 27.0981 32.4801C27.6342 31.8269 28.3064 30.8108 28.6946 30.0443C28.7481 29.9388 28.7583 29.8178 28.7247 29.7046L28.641 29.4266C28.6165 29.3453 28.5313 29.2536 28.4528 29.2233C27.5393 28.8727 26.8191 28.6123 25.9729 28.3214L26.0739 28.289ZM44.1405 20.3775C44.3415 20.3029 44.5619 20.308 44.7592 20.3919C46.2904 21.0405 48.8652 22.5662 50.2964 23.641C50.4347 23.745 50.4898 23.8165 50.526 23.9843C50.8621 25.5265 50.9896 27.9103 50.7779 29.9173C50.7626 30.0614 50.7341 30.1479 50.6596 30.3018C49.7527 32.1729 48.7321 33.9339 47.6579 35.2923L47.6601 35.2701C47.6741 35.1254 47.7512 34.3098 47.7553 33.8685C47.7558 33.8186 47.7788 33.7728 47.8181 33.7424C48.0175 33.5859 48.2914 33.3635 48.4465 33.2282C48.5219 33.1623 48.5638 33.1129 48.6031 33.049C49.0407 32.3356 49.8231 30.8418 50.1383 29.943C50.2153 29.7238 50.246 29.4916 50.2271 29.2595C50.1261 28.0071 49.9312 26.2719 49.641 25.1394C49.5915 24.9464 49.465 24.7832 49.2891 24.6921C49.0386 24.5624 48.5475 24.3364 47.4289 23.8839C47.2738 23.8211 47.129 23.7342 47.0015 23.6261C46.268 23.0042 45.1214 22.072 44.4078 21.5357C44.1992 21.3787 43.9329 21.3215 43.6789 21.3797C43.1592 21.4986 42.4976 21.6644 42.1253 21.7663C41.9988 21.8008 41.9488 21.8039 41.8182 21.7884C41.7502 21.7805 41.6623 21.7718 41.57 21.7633L41.4301 21.7509C41.2676 21.7369 41.115 21.725 41.0552 21.7204L41.0287 21.7184C42.2421 21.1434 43.4096 20.6472 44.1405 20.3775ZM27.9512 30.5003C27.5717 31.1304 27.1182 31.7995 26.7755 32.2175C26.7306 32.2721 26.6709 32.3143 26.6031 32.34C26.2282 32.4816 25.6034 32.6947 25.1433 32.8362L27.9512 30.5003ZM22.9357 29.6731L22.7118 31.2323L21.9503 30.3304C22.089 30.0273 22.4945 29.7411 22.9357 29.6731ZM27.0376 20.8458L26.8295 21.1042C26.8178 21.1155 26.8065 21.1263 26.7948 21.1382C26.6117 21.2746 25.841 21.8702 25.6324 22.0369C25.5732 22.0843 25.5497 22.1255 25.536 22.2001C25.489 22.4637 25.411 22.9645 25.3881 23.242C25.3814 23.3233 25.3467 23.3634 25.2646 23.3969C24.9071 23.5436 24.4832 23.698 24.1405 23.8365C24.067 23.8658 24.0466 23.8772 24.0032 23.9106C23.9691 23.9374 23.5136 24.3476 23.5136 24.3476C23.5136 24.3476 24.5036 24.1016 24.8668 24.0187C24.9535 23.9991 24.9907 24.0043 25.0708 24.0424C25.1458 24.0774 25.2707 24.1273 25.3365 24.1515C25.4375 24.1891 25.4911 24.1875 25.6028 24.1628C26.0119 24.0707 26.6999 23.906 27.0661 23.8097C27.2564 23.7598 27.3605 23.7078 27.5216 23.594C27.6971 23.471 28.1414 23.1349 28.1414 23.1349C28.1414 23.1349 28.1332 23.1941 28.1271 23.227C28.1225 23.2553 28.1123 23.2713 28.0939 23.2934C28.0036 23.4031 27.8455 23.5817 27.767 23.6635C27.5869 23.8514 27.4793 23.9183 27.2533 24.0136C26.2128 24.4511 24.4348 25.1306 23.1009 25.5964C23.0137 25.6273 22.976 25.6525 22.9112 25.7194C22.8408 25.7915 22.747 25.8965 22.747 25.8965C22.747 25.8965 23.8344 25.9763 24.1665 26.0149C24.2741 26.0273 24.3511 26.0628 24.4332 26.1343C24.7061 26.3711 25.6094 27.3095 25.8798 27.6353C25.8798 27.6353 23.3116 28.0662 22.1216 28.3642C21.9747 28.4008 21.9013 28.495 21.8681 28.6139C21.7697 28.9629 21.5376 30.085 21.5376 30.085C21.5376 30.085 21.455 30.0582 21.3397 29.9913C21.2607 29.9455 21.2204 29.9074 21.1337 29.8148C20.8521 29.5147 20.3895 28.9402 20.1671 28.6072C20.1018 28.5089 20.0743 28.3838 20.1559 28.2834C20.3971 27.9838 20.8817 27.4371 21.149 27.1561C21.1775 27.1257 21.2137 27.0727 21.252 26.9965C21.3419 26.8163 21.4605 26.3597 21.5018 26.1949L21.5149 26.1416L21.5167 26.1343C21.5167 26.1343 21.5142 26.1359 21.5095 26.1389L21.4607 26.1698C21.3946 26.2118 21.2877 26.2797 21.2418 26.3088C21.1729 26.3531 21.1541 26.3721 21.1255 26.4329C21.0821 26.5245 21.0061 26.6691 20.9485 26.7695C20.9296 26.8025 20.8791 26.8534 20.8521 26.8745C20.5109 27.1376 20.1339 27.4202 19.8656 27.6106C19.8473 27.6235 19.8238 27.6178 19.808 27.6024C19.7738 27.5679 19.6305 27.4037 19.605 27.3651C19.5836 27.3327 19.5739 27.3023 19.5739 27.2632C19.5734 27.1947 19.58 27.0743 19.5866 26.9847C19.5948 26.8786 19.6249 26.8282 19.7529 26.6944C19.8962 26.5446 20.0523 26.3871 20.2166 26.2254C20.619 25.8836 21.635 25.0518 23.4493 23.7454C23.4835 23.7207 23.5146 23.6918 23.5396 23.6574C23.7304 23.3979 24.2715 22.6896 24.4052 22.5213C24.424 22.4976 24.445 22.4755 24.4689 22.4565C24.6826 22.2861 24.7882 22.2125 25.005 22.0745C25.5105 21.7533 26.4893 21.1675 27.0376 20.8458ZM38.0958 20.2665C38.1718 20.2531 38.2498 20.2639 38.3197 20.2973L38.8496 20.5532C38.9017 20.5784 38.9399 20.6263 38.9537 20.6839C39.0256 20.9897 39.1139 21.3948 39.173 21.7392C39.197 21.8823 39.1705 22.0284 39.0986 22.1546C38.8792 22.5391 38.4288 23.2309 38.1769 23.6025C38.1208 23.6859 38.1141 23.7868 38.1315 23.8862C38.2457 24.5234 38.7221 26.7487 38.7221 26.7487L38.4222 26.4733C38.3625 26.4177 38.3233 26.359 38.2978 26.2823C38.0846 25.6528 37.6857 24.3376 37.5021 23.6978C37.4725 23.5922 37.4949 23.4795 37.5638 23.3956C37.8765 23.0126 38.3319 22.4001 38.5982 22.012C38.6727 21.9028 38.6971 21.7824 38.6533 21.6923C38.5921 21.5657 38.489 21.3732 38.3901 21.1987C38.3636 21.1503 38.3192 21.1142 38.2666 21.0967L37.9071 20.9804C37.8443 20.9603 37.777 20.9614 37.7148 20.984C36.9313 21.2707 35.8775 21.6841 35.2328 21.9538C35.1385 21.9934 35.0997 21.9965 34.9854 21.979C34.7988 21.9512 34.255 21.8529 33.9883 21.8025C33.9403 21.7932 33.9163 21.7386 33.9408 21.6959L34.2571 21.1431C34.2999 21.0684 34.3708 21.0154 34.4545 20.9964C35.4715 20.7627 36.8165 20.494 38.0958 20.2665ZM26.8412 22.8053C26.8897 22.8012 26.9356 22.8285 26.9544 22.8732C27.0182 23.023 27.0009 23.1903 26.9391 23.3334C26.9152 23.3916 26.8412 23.4482 26.7805 23.4616L26.273 23.5754C26.2424 23.5821 26.2144 23.5573 26.2164 23.5259L26.2638 22.9247C26.2674 22.8841 26.299 22.8516 26.3393 22.8485L26.8412 22.8053ZM32.6159 18.9422C32.6746 18.9417 32.7113 19.0055 32.6822 19.0564L31.4448 21.2065C31.3759 21.3332 31.2607 21.4274 31.124 21.4691L28.8037 22.2015C28.5344 22.2839 28.3069 22.3282 28.0264 22.3498C27.5117 22.3889 25.9831 22.4373 25.9831 22.4373L26.0168 22.3642C26.0326 22.3297 26.0606 22.3024 26.0953 22.2875L26.8186 21.9776C26.8726 21.9545 26.9201 21.919 26.9563 21.8731L28.0733 20.4854C28.133 20.4113 28.211 20.3402 28.2942 20.296C29.0322 19.9042 30.3446 19.3159 31.2637 19.006C31.3504 18.9767 31.4672 18.9581 31.5585 18.9571L32.6159 18.9422ZM31.3754 16.4453C33.9359 16.2183 37.4008 16.1566 40.7105 16.4093C40.8988 16.4237 41.0819 16.4685 41.2558 16.5426C42.3402 17.0028 44.2641 18.0097 46.4033 19.2445C46.4977 19.2991 46.5864 19.3629 46.668 19.4355C47.2347 19.9394 48.6705 21.4219 48.6705 21.4219L48.2227 21.3323C48.16 21.32 48.1013 21.2953 48.0483 21.2593C47.1424 20.6452 45.8198 19.8458 44.7114 19.2821C44.5799 19.2157 44.4375 19.173 44.2912 19.1575C43.752 19.0994 43.0232 19.0484 42.5462 19.0289C42.3111 19.0191 42.151 18.9794 41.9209 18.8616C41.4812 18.6366 40.4162 18.1491 39.8858 17.9448C39.6588 17.8573 39.543 17.8367 39.3206 17.8403C38.4092 17.8537 36.3327 17.9206 35.2723 17.987C35.2356 17.9891 35.2004 17.9875 35.1647 17.9819L34.6592 17.9021C36.0925 17.6529 39.6353 17.3343 41.1018 17.2566L40.505 17.0553C40.3897 17.0167 40.2699 16.9961 40.148 16.993C39.8296 16.9854 39.1217 16.9711 38.2028 16.9698L37.8889 16.9699C36.497 16.9727 34.7062 17.0071 33.0546 17.1325C32.9102 17.1433 32.7694 17.1783 32.6368 17.2375C31.9697 17.5333 30.3428 18.4234 28.7112 19.3377L28.3489 19.5411C27.9271 19.7783 27.5097 20.0142 27.1134 20.239C27.1134 20.239 27.3169 19.975 27.3562 19.9235C27.3909 19.8787 27.4016 19.8705 27.4485 19.8396C27.5141 19.7962 27.7379 19.6474 27.9636 19.4964L28.1307 19.3844C28.2662 19.2934 28.3872 19.2116 28.4553 19.1642C28.489 19.1411 28.5104 19.1246 28.5528 19.0927C29.044 18.719 29.8192 18.0601 30.2814 17.6519C30.3859 17.5598 30.4747 17.4527 30.5476 17.3333C30.6971 17.0893 30.8603 16.8247 30.9608 16.678C31.0464 16.5509 31.1928 16.4618 31.3754 16.4453ZM20.4716 10.5083C21.1041 10.4424 21.4576 10.6905 21.4576 11.3365V11.6938C21.4576 12.3547 21.1041 12.6218 20.4716 12.6882C19.5969 12.7804 18.7221 12.8802 17.8489 12.9883V13.9648C17.6658 13.9875 17.4822 14.0101 17.2991 14.0338V10.8779C18.3554 10.743 19.4128 10.62 20.4716 10.5083ZM49.8263 10.406C51.2208 10.5429 52.6143 10.7004 54.0052 10.8775V11.3865C53.4038 11.3099 52.8015 11.2368 52.1986 11.1678V13.8151C52.0154 13.794 51.8323 13.7734 51.6482 13.7528V11.1055C51.0417 11.0381 50.4338 10.9748 49.8263 10.915V10.406ZM26.6604 9.99117V10.4997C25.5133 10.5713 24.3667 10.6562 23.2211 10.7545V11.5318C24.2402 11.4438 25.2598 11.3671 26.2799 11.3012V11.8103C25.2598 11.8762 24.2402 11.9529 23.2211 12.0404V12.8933C24.3667 12.7945 25.5133 12.7096 26.6604 12.6385V13.1471C25.3337 13.2294 24.0081 13.3303 22.683 13.4492V10.2928C24.0081 10.1739 25.3337 10.0735 26.6604 9.99117ZM44.5018 10.8557C44.5018 10.1479 44.8497 10.0022 45.6336 10.0558C46.3222 10.1036 47.0098 10.1556 47.6978 10.2133C48.3788 10.2699 48.8281 10.4629 48.8281 11.1851V12.5945C48.8281 13.3033 48.44 13.431 47.6978 13.3692C47.0098 13.3121 46.3222 13.2596 45.6336 13.2122C44.8839 13.1612 44.5018 13.0151 44.5018 12.2651V10.8557ZM39.1671 9.75485C40.4952 9.78677 41.8229 9.83721 43.1506 9.90619V10.4148C42.003 10.3556 40.8548 10.3097 39.7062 10.2778V11.0546C40.7278 11.0834 41.749 11.1225 42.7696 11.1725V11.6816C41.749 11.6316 40.7278 11.592 39.7062 11.5637V12.4161C40.8548 12.448 42.003 12.4938 43.1506 12.5535V13.0621C41.8229 12.9936 40.4952 12.9432 39.1671 12.9108V9.75485ZM32.2558 9.75207V12.035C32.2558 12.7572 31.8799 12.9157 31.1224 12.9394C30.4629 12.96 29.8034 12.9847 29.1439 13.0145C28.4411 13.0465 28.0116 12.9116 28.0116 12.1966V9.9137L28.5502 9.88591V12.2651C28.5502 12.4097 28.6731 12.5276 28.8364 12.5199C29.7009 12.4792 30.565 12.4463 31.4295 12.421C31.5937 12.4164 31.7029 12.2898 31.7029 12.1451V9.76597C31.887 9.76082 32.0712 9.75619 32.2558 9.75207ZM45.3271 10.5443C45.1634 10.5329 45.0404 10.6488 45.0404 10.814V12.3747C45.0404 12.5194 45.1634 12.6712 45.3271 12.6825C46.2202 12.7422 47.1123 12.8102 48.0044 12.8864C48.1472 12.8987 48.29 12.7664 48.29 12.6223V11.0611C48.29 10.8964 48.1472 10.7599 48.0044 10.7476C47.1123 10.6714 46.2202 10.6035 45.3271 10.5443ZM34.6376 9.71583C35.6276 9.70863 36.6177 9.71223 37.6072 9.72561V10.2342C36.5493 10.2203 35.491 10.2172 34.4326 10.2259C34.2893 10.2275 34.1459 10.3526 34.1459 10.4972V12.0785C34.1459 12.2232 34.2893 12.3663 34.4326 12.3647C35.3818 12.3565 36.3305 12.358 37.2797 12.3688V11.5159C36.7289 11.5097 36.178 11.5066 35.6276 11.5072V10.9981C36.3581 10.9981 37.0885 11.0037 37.8189 11.0145V12.8846C36.7926 12.8692 35.7664 12.8651 34.7401 12.8712C33.9888 12.8764 33.6068 12.7456 33.6068 12.0095V10.6341C33.6068 9.94695 33.948 9.72098 34.6376 9.71583ZM20.6349 11.0004C19.7055 11.0972 18.7767 11.2027 17.8489 11.3175V12.4793C18.7767 12.365 19.7055 12.2589 20.6349 12.1627C20.7772 12.1472 20.92 12.016 20.92 11.8785V11.2392C20.92 11.0946 20.7772 10.9855 20.6349 11.0004Z" fill="white"/>
</svg>
