<svg width="31" height="32" viewBox="0 0 31 32" fill="none" xmlns="http://www.w3.org/2000/svg">
<path d="M1.83868 20.3969C2.04437 21.1596 2.2574 22.0612 2.48292 23.1837L11.7749 22.8533C11.5346 20.054 12.4073 16.1134 13.0817 13.7771C13.8721 10.9001 13.9309 8.23032 11.4076 5.9428C9.96407 4.63072 7.83888 4.09451 5.77686 4.61696C4.41492 4.96422 3.18373 5.74195 2.28458 6.80688C0.661855 8.73588 -0.141795 11.6453 0.020551 13.9785C0.173347 16.2404 1.24439 18.1957 1.83868 20.3969ZM29.1613 15.977C28.9556 16.7385 28.7426 17.6407 28.5171 18.762L19.2251 18.4328C19.4654 15.6329 18.5927 11.6935 17.9183 9.35782C17.1279 6.48027 17.0691 3.81044 19.5932 1.52292C22.2825 -0.922908 26.4742 -0.268436 28.7154 2.38637C30.3381 4.31538 31.1418 7.22546 30.9795 9.55867C30.8267 11.8199 29.7556 13.7758 29.1613 15.977ZM28.3746 20.4332C28.3738 20.6321 28.3768 20.8324 28.3834 21.0332C28.3922 21.3129 28.4062 21.5594 28.4201 21.7984C28.5105 23.4809 28.5744 24.7204 26.8606 26.197C26.007 26.9335 24.9278 27.3646 23.8157 27.5179C22.976 27.6324 22.1209 27.5873 21.332 27.3934C20.5482 27.1994 19.8312 26.8596 19.2619 26.3791C18.6345 25.8523 18.1879 25.1559 18.0285 24.3037C17.9073 23.6599 17.9572 23.0192 18.1012 22.3866C18.2467 21.7415 18.4942 21.0977 18.7557 20.4701C18.8072 20.3468 18.8542 20.2223 18.896 20.0966L28.3746 20.4332ZM2.62617 24.8537C2.62617 25.0533 2.6225 25.2522 2.61662 25.4531C2.60781 25.7328 2.59385 25.9793 2.57989 26.2189C2.48954 27.9008 2.42563 29.1403 4.13944 30.6169C4.99305 31.3534 6.07217 31.7851 7.18435 31.9378C8.02473 32.0529 8.87907 32.0066 9.66803 31.8132C10.4518 31.6193 11.1688 31.2795 11.7389 30.7984C12.3655 30.2722 12.8121 29.5758 12.9715 28.7242C13.0927 28.0804 13.0428 27.439 12.8988 26.8071C12.7533 26.1607 12.5058 25.5175 12.2443 24.89C12.1928 24.7673 12.1466 24.6434 12.1047 24.5171L2.62617 24.8537Z" fill="black"/>
<path d="M2.53431 21.1221C2.73337 21.8371 2.93953 22.6824 3.15777 23.7347L12.15 23.425C11.9175 20.8006 12.762 17.1063 13.4147 14.916C14.1796 12.2189 14.2365 9.71593 11.7945 7.57137C10.3976 6.3413 8.34095 5.8386 6.34545 6.3284C5.02744 6.65395 3.83597 7.38308 2.96583 8.38145C1.39545 10.1899 0.617723 12.9175 0.774832 15.1049C0.922699 17.2254 1.95919 19.0585 2.53431 21.1221ZM28.9756 16.9784C28.7765 17.6923 28.5704 18.5382 28.3521 19.5893L19.3599 19.2808C19.5924 16.6558 18.7478 12.9627 18.0952 10.773C17.3303 8.07525 17.2734 5.57229 19.7161 3.42773C22.3187 1.13477 26.3751 1.74834 28.5441 4.23722C30.1144 6.04566 30.8922 8.77387 30.7351 10.9612C30.5872 13.0812 29.5507 14.9148 28.9756 16.9784ZM28.2142 21.1561C28.2135 21.3426 28.2163 21.5303 28.2227 21.7186C28.2313 21.9808 28.2448 22.212 28.2583 22.436C28.3457 24.0134 28.4076 25.1754 26.749 26.5597C25.923 27.2501 24.8787 27.6543 23.8023 27.798C22.9898 27.9053 22.1623 27.8631 21.3988 27.6813C20.6403 27.4994 19.9464 27.1809 19.3955 26.7304C18.7884 26.2365 18.3561 25.5836 18.2019 24.7847C18.0846 24.1811 18.1329 23.5805 18.2722 22.9874C18.413 22.3827 18.6526 21.7791 18.9057 21.1907C18.9554 21.0752 19.0009 20.9584 19.0414 20.8405L28.2142 21.1561ZM3.2964 25.3003C3.2964 25.4874 3.29284 25.674 3.28716 25.8623C3.27863 26.1245 3.26512 26.3556 3.25161 26.5803C3.16417 28.157 3.10232 29.319 4.76086 30.7034C5.58692 31.3938 6.63124 31.7985 7.70754 31.9416C8.52081 32.0496 9.34759 32.0062 10.1111 31.8249C10.8696 31.6431 11.5635 31.3246 12.1151 30.8735C12.7215 30.3802 13.1538 29.7273 13.308 28.9289C13.4253 28.3253 13.377 27.7241 13.2376 27.1316C13.0969 26.5257 12.8573 25.9227 12.6042 25.3343C12.5545 25.2194 12.5097 25.1032 12.4692 24.9847L3.2964 25.3003Z" fill="#D5DA25"/>
</svg>
