<svg width="60" height="61" viewBox="0 0 60 61" fill="none" xmlns="http://www.w3.org/2000/svg">
<path d="M0 60.5H60V0.5H0V60.5Z" fill="#EB0A1E"/>
<path d="M30 13C15.8833 13 5 20.4068 5 30.4972C5 40.5875 15.8833 48 30 48C44.1167 48 55 40.5875 55 30.5028C55 20.4239 44.1167 13 30 13ZM45.2719 21.2386C45.2719 23.5518 41.6792 25.3466 35.9253 26.0588C35.3891 20.5151 33.8359 16.8686 31.8406 15.5069C37.9814 15.9057 45.2719 18.1506 45.2719 21.2386ZM30 39.9494C27.9936 39.9494 26.363 36.7303 26.2304 30.5256C27.4298 30.6282 28.69 30.6795 30 30.6795C31.31 30.6795 32.5647 30.6282 33.7641 30.5256C33.637 36.7303 32.0009 39.9494 30 39.9494ZM30 26.3892C28.7674 26.3892 27.5956 26.3493 26.4791 26.2753C27.0263 22.5662 28.3971 19.5123 30 19.5123C31.6029 19.5123 32.9737 22.5662 33.5154 26.2753C32.4044 26.3664 31.2271 26.4063 30 26.4063V26.3892ZM28.1649 15.4955C26.1696 16.8572 24.6109 20.5037 24.0747 26.0474C18.3153 25.3295 14.7281 23.5405 14.7281 21.2273C14.7281 18.1392 22.0241 15.9057 28.1649 15.5069V15.4955ZM9.25602 29.8077C9.26155 29.802 9.26155 29.7907 9.26155 29.785C9.26155 27.3464 10.0298 24.9705 11.4448 23.0163C12.0031 26.3379 16.7068 29.2038 23.8868 30.2522C23.8868 30.3319 23.8868 30.4174 23.8868 30.4972C23.8868 38.5991 25.7163 43.818 28.2313 45.4475C17.5857 44.7752 9.25602 37.9951 9.25602 29.8077ZM31.8019 45.4532C34.3113 43.8066 36.1408 38.5877 36.1408 30.5028C36.1408 30.4231 36.1408 30.3376 36.1408 30.2579C43.3208 29.2152 48.0245 26.3436 48.5828 23.022C49.9812 24.9705 50.7384 27.3293 50.7384 29.7508C50.7384 29.7679 50.7384 29.7907 50.7384 29.8077C50.7384 37.9894 42.4088 44.7695 31.7908 45.4532H31.8019Z" fill="white"/>
</svg>
