<svg width="31" height="30" viewBox="0 0 31 30" fill="none" xmlns="http://www.w3.org/2000/svg">
<path fill-rule="evenodd" clip-rule="evenodd" d="M7.10824 0H23.5584C25.3537 0.0051772 27.0739 0.723949 28.3433 1.99929C29.6127 3.27463 30.3282 5.00288 30.3333 6.80648V23.196C30.3275 24.9992 29.6118 26.7268 28.3425 28.0016C27.0731 29.2764 25.3532 29.9948 23.5584 30H7.10824C5.31343 29.9948 3.59357 29.2764 2.32421 28.0016C1.05485 26.7268 0.339133 24.9992 0.333336 23.196V6.80648C0.338489 5.00288 1.05393 3.27463 2.32335 1.99929C3.59278 0.723949 5.31301 0.0051772 7.10824 0Z" fill="#1CA1F1"/>
<path fill-rule="evenodd" clip-rule="evenodd" d="M25.37 8.74656C24.6194 9.08193 23.8226 9.30108 23.0067 9.39655C23.8647 8.87961 24.5081 8.06867 24.8182 7.11301C24.0095 7.59433 23.1254 7.93436 22.2035 8.11865C21.6387 7.51422 20.9063 7.09415 20.1011 6.91288C19.2959 6.73161 18.4551 6.7975 17.6877 7.102C16.9202 7.40651 16.2615 7.93559 15.7968 8.62068C15.3322 9.30576 15.0831 10.1153 15.0819 10.9443C15.0821 11.2611 15.1173 11.577 15.1869 11.8861C13.5499 11.8034 11.9487 11.3757 10.487 10.6307C9.02541 9.88571 7.73613 8.84012 6.70296 7.56186C6.33663 8.19324 6.1437 8.91101 6.14388 9.64183C6.14438 10.3214 6.31175 10.9903 6.63116 11.5893C6.95056 12.1883 7.41212 12.6988 7.97494 13.0757C7.32129 13.0533 6.68217 12.8759 6.1097 12.5582V12.6121C6.10676 13.5693 6.43441 14.4979 7.03678 15.2395C7.63916 15.9811 8.47894 16.4898 9.41293 16.6789C9.05875 16.7754 8.69349 16.8249 8.3265 16.826C8.06595 16.8244 7.80609 16.799 7.55013 16.75C7.81375 17.5713 8.32592 18.2895 9.01522 18.8043C9.70452 19.3192 10.5366 19.6051 11.3953 19.6222C9.66698 20.9831 7.4723 21.6005 5.29183 21.3392C7.17465 22.5558 9.36667 23.2013 11.6053 23.1984C19.1737 23.1984 23.3241 16.8947 23.3241 11.425C23.3241 11.2435 23.3241 11.0669 23.3119 10.8878C24.1186 10.3056 24.8141 9.58187 25.3651 8.75147L25.37 8.74656Z" fill="white"/>
</svg>
