<svg width="61" height="61" viewBox="0 0 61 61" fill="none" xmlns="http://www.w3.org/2000/svg">
<path d="M30.576 0C14.0351 0 0.575989 13.6834 0.575989 30.5C0.575989 47.3166 14.0351 61 30.576 61C47.1169 61 60.576 47.3166 60.576 30.5C60.576 13.6834 47.1169 0 30.576 0ZM30.576 5.54545C33.362 5.54545 36.0307 6.04231 38.5288 6.91557L30.7464 23.4382L22.9109 6.80726C25.3254 5.99772 27.898 5.54545 30.576 5.54545ZM17.957 9.13592L26.7195 27.7273H34.7734L43.456 9.29838C46.1357 10.987 48.4687 13.1745 50.3327 15.7482L39.2745 41.5476L35.3754 33.2727H26.1122L22.2184 41.5476L11.0323 15.4612C12.9219 12.9291 15.2693 10.7828 17.957 9.13592ZM7.69247 21.5482L21.4567 53.6458C12.4287 49.9562 6.03053 40.9831 6.03053 30.5C6.03053 27.3422 6.63545 24.3314 7.69247 21.5482ZM53.614 21.976C54.571 24.6406 55.1214 27.5027 55.1214 30.5C55.1214 40.8286 48.9176 49.7058 40.1001 53.4941L53.614 21.976ZM30.7464 36.2783L39.0454 53.8949C36.4011 54.8877 33.5555 55.4545 30.576 55.4545C27.7062 55.4545 24.9613 54.9273 22.3995 54.0032L30.7464 36.2783Z" fill="white"/>
</svg>
