<svg width="30" height="30" viewBox="0 0 30 30" fill="none" xmlns="http://www.w3.org/2000/svg">
<rect width="30" height="30" rx="5" fill="#FF0000"/>
<path fill-rule="evenodd" clip-rule="evenodd" d="M25.778 11.2349C25.778 11.2349 25.5631 9.76573 24.9006 9.12049C24.0645 8.27232 23.1262 8.26711 22.6965 8.21681C19.6204 8 14.9991 8 14.9991 8C14.9991 8 10.3796 8 7.29991 8.21681C6.87019 8.26711 5.93375 8.27058 5.09579 9.12049C4.42972 9.76573 4.21844 11.2349 4.21844 11.2349C4.08237 12.3808 4.00945 13.533 4 14.6865L4 16.3013C4.00962 17.4548 4.08254 18.607 4.21844 19.753C4.21844 19.753 4.4333 21.2221 5.09042 21.876C5.92838 22.7259 7.02775 22.6982 7.52014 22.7884C9.28021 22.9514 15.0009 23 15.0009 23C15.0009 23 19.6258 23 22.7001 22.7797C23.1316 22.7294 24.068 22.7242 24.906 21.876C25.5667 21.2308 25.7816 19.7599 25.7816 19.7599C25.9176 18.614 25.9905 17.4618 26 16.3083V14.6848C25.9881 13.5312 25.9133 12.3791 25.7762 11.2331L25.778 11.2349Z" fill="white"/>
<path fill-rule="evenodd" clip-rule="evenodd" d="M12.8 18.9892V13L18.7427 16.0042L12.8 18.9892Z" fill="#FF0000"/>
</svg>
